<?xml version="1.0" encoding="utf-8"?>
<svg width="23px" height="29px" viewBox="0 0 23 29" version="1.1" xmlns:xlink="http://www.w3.org/1999/xlink" xmlns="http://www.w3.org/2000/svg">
  <path d="M15.4172 0L2.4838 0C1.11203 0 0 1.17745 0 2.6299L0 26.299C0 27.7515 1.11203 28.9289 2.4838 28.9289L19.8704 28.9289C21.2421 28.9289 22.3542 27.7515 22.3542 26.299L22.3542 7.34504L15.4172 0ZM14.9028 10.5196L19.8704 10.5196L19.8704 26.299L2.4838 26.299L2.4838 2.6299L12.419 2.6299L12.419 7.88971C12.419 9.34216 13.531 10.5196 14.9028 10.5196ZM14.9028 7.88971L14.9028 3.17457L19.356 7.88971L14.9028 7.88971ZM15.2665 13.5346L9.93519 19.1796L7.08765 16.1646L5.33134 18.0242L9.93519 22.8988L17.0228 15.3943L15.2665 13.5346Z" id="icon" fill="#FFFFFF" fill-rule="evenodd" stroke="none" />
</svg>