<?xml version="1.0" encoding="utf-8"?>
<svg width="37px" height="37px" viewBox="0 0 37 37" version="1.1" xmlns:xlink="http://www.w3.org/1999/xlink" xmlns="http://www.w3.org/2000/svg">
  <defs>
    <path d="M9.01786 0L11.5873 0C13.0063 0 14.7456 0.988221 15.4721 2.20727L18.6523 7.54439L24.4346 7.54439C25.1441 7.54439 25.7193 8.11956 25.7193 8.82911C25.7193 9.53866 25.1441 10.1138 24.4346 10.1138L18.5301 10.1138L15.3498 15.451C14.6234 16.67 12.8841 17.6582 11.465 17.6582L8.89565 17.6582L13.3912 10.1138L4.41237 10.1138L2.56944 13.2651L0 13.2651L2.59425 8.82911L2.59425 8.78672L0.024808 4.39312L2.59425 4.39312L4.43719 7.54439L13.5134 7.54439L9.01786 0Z" transform="translate(5.640393 9.670888)" id="path_1" />
    <clipPath id="mask_1">
      <use xlink:href="#path_1" />
    </clipPath>
  </defs>
  <g id="iconmapstrack_24px">
    <path d="M9.01786 0L11.5873 0C13.0063 0 14.7456 0.988221 15.4721 2.20727L18.6523 7.54439L24.4346 7.54439C25.1441 7.54439 25.7193 8.11956 25.7193 8.82911C25.7193 9.53866 25.1441 10.1138 24.4346 10.1138L18.5301 10.1138L15.3498 15.451C14.6234 16.67 12.8841 17.6582 11.465 17.6582L8.89565 17.6582L13.3912 10.1138L4.41237 10.1138L2.56944 13.2651L0 13.2651L2.59425 8.82911L2.59425 8.78672L0.024808 4.39312L2.59425 4.39312L4.43719 7.54439L13.5134 7.54439L9.01786 0Z" transform="translate(5.640393 9.670888)" id="airplane" fill="#FFFFFF" fill-rule="evenodd" stroke="none" />
  </g>
</svg>