<?xml version="1.0" encoding="utf-8"?>
<svg width="37px" height="37px" viewBox="0 0 37 37" version="1.1" xmlns:xlink="http://www.w3.org/1999/xlink" xmlns="http://www.w3.org/2000/svg">
  <defs>
    <path d="M0 21.8403C0 23.9689 1.72557 25.6944 3.85417 25.6944L21.8403 25.6944C23.9689 25.6944 25.6944 23.9689 25.6944 21.8403L25.6944 3.85417C25.6944 1.72557 23.9689 0 21.8403 0L3.85417 0C1.72557 0 0 1.72557 0 3.85417L0 21.8403ZM23.125 21.8403C23.125 22.5498 22.5498 23.125 21.8403 23.125L3.85417 23.125C3.14464 23.125 2.56944 22.5498 2.56944 21.8403L2.56944 3.85417C2.56944 3.14464 3.14464 2.56944 3.85417 2.56944L10.2778 2.56944L10.2778 12.8615L13.3547 12.8616L15.4168 10.1033L17.4788 12.8616L20.5557 12.8616L20.5556 2.56944L21.8403 2.56944C22.5498 2.56944 23.125 3.14464 23.125 3.85417L23.125 21.8403ZM17.9861 2.56944L12.8472 2.56944L12.8472 9.42453L15.4168 5.9874L17.9861 9.42435L17.9861 2.56944Z" transform="translate(5.652777 5.652777)" id="path_1" />
    <clipPath id="mask_1">
      <use xlink:href="#path_1" />
    </clipPath>
  </defs>
  <g id="iconmapstrack_24px">
    <path d="M0 21.8403C0 23.9689 1.72557 25.6944 3.85417 25.6944L21.8403 25.6944C23.9689 25.6944 25.6944 23.9689 25.6944 21.8403L25.6944 3.85417C25.6944 1.72557 23.9689 0 21.8403 0L3.85417 0C1.72557 0 0 1.72557 0 3.85417L0 21.8403ZM23.125 21.8403C23.125 22.5498 22.5498 23.125 21.8403 23.125L3.85417 23.125C3.14464 23.125 2.56944 22.5498 2.56944 21.8403L2.56944 3.85417C2.56944 3.14464 3.14464 2.56944 3.85417 2.56944L10.2778 2.56944L10.2778 12.8615L13.3547 12.8616L15.4168 10.1033L17.4788 12.8616L20.5557 12.8616L20.5556 2.56944L21.8403 2.56944C22.5498 2.56944 23.125 3.14464 23.125 3.85417L23.125 21.8403ZM17.9861 2.56944L12.8472 2.56944L12.8472 9.42453L15.4168 5.9874L17.9861 9.42435L17.9861 2.56944Z" transform="translate(5.652777 5.652777)" id="album" fill="#FFFFFF" stroke="none" />
  </g>
</svg>