<?xml version="1.0" encoding="utf-8"?>
<svg width="37px" height="37px" viewBox="0 0 37 37" version="1.1" xmlns:xlink="http://www.w3.org/1999/xlink" xmlns="http://www.w3.org/2000/svg">
  <defs>
    <path d="M25.1039 5.67249C24.55 6.22639 24.5039 7.08801 24.9962 7.70345C27.2272 10.5037 28.3966 14.3349 27.3503 18.3506C26.1348 23.0434 22.4575 26.5514 17.7955 27.49C9.94864 29.044 3.07105 22.9818 3.07105 15.3965C3.07105 9.11897 7.76381 3.94925 13.8413 3.19533L13.8413 6.30332C9.02547 7.11878 5.48667 11.6269 6.25598 16.812C6.85603 20.8278 10.1948 24.0589 14.226 24.5512C19.8265 25.2436 24.6116 20.8739 24.6116 15.3965C24.6116 13.4732 24.0269 11.7038 23.0268 10.2268C22.5037 9.45747 21.3805 9.41131 20.7189 10.0575L20.7035 10.0729C20.1804 10.596 20.1342 11.4115 20.5343 12.0269C21.4574 13.4425 21.8267 15.258 21.2882 17.1351C20.6881 19.243 18.9187 20.9201 16.7647 21.3971C12.7643 22.2741 9.22549 19.2584 9.22549 15.3965C9.22549 12.5347 11.1949 10.1498 13.8413 9.45747L13.8413 12.7501C12.9182 13.2886 12.3027 14.2579 12.3027 15.3965C12.3027 17.089 13.6875 18.4737 15.3799 18.4737C17.0724 18.4737 18.4571 17.089 18.4571 15.3965C18.4571 14.2579 17.8417 13.2732 16.9185 12.7501L16.9185 1.10282C16.9185 0.502764 16.4262 0.0104088 15.8261 0.0104088C7.57918 -0.297313 0.470804 6.25716 0.0246074 14.4733C-0.529292 24.5512 8.34848 32.6597 18.5033 30.4749C24.4731 29.1978 29.0889 24.6282 30.4275 18.6737C31.5199 13.8117 30.1198 9.19591 27.3965 5.79558C26.8272 5.07243 25.7502 5.02627 25.1039 5.67249Z" transform="translate(3.100006 3.083252)" id="path_1" />
    <clipPath id="mask_1">
      <use xlink:href="#path_1" />
    </clipPath>
  </defs>
  <g id="iconmapstrack_24px">
    <path d="M25.1039 5.67249C24.55 6.22639 24.5039 7.08801 24.9962 7.70345C27.2272 10.5037 28.3966 14.3349 27.3503 18.3506C26.1348 23.0434 22.4575 26.5514 17.7955 27.49C9.94864 29.044 3.07105 22.9818 3.07105 15.3965C3.07105 9.11897 7.76381 3.94925 13.8413 3.19533L13.8413 6.30332C9.02547 7.11878 5.48667 11.6269 6.25598 16.812C6.85603 20.8278 10.1948 24.0589 14.226 24.5512C19.8265 25.2436 24.6116 20.8739 24.6116 15.3965C24.6116 13.4732 24.0269 11.7038 23.0268 10.2268C22.5037 9.45747 21.3805 9.41131 20.7189 10.0575L20.7035 10.0729C20.1804 10.596 20.1342 11.4115 20.5343 12.0269C21.4574 13.4425 21.8267 15.258 21.2882 17.1351C20.6881 19.243 18.9187 20.9201 16.7647 21.3971C12.7643 22.2741 9.22549 19.2584 9.22549 15.3965C9.22549 12.5347 11.1949 10.1498 13.8413 9.45747L13.8413 12.7501C12.9182 13.2886 12.3027 14.2579 12.3027 15.3965C12.3027 17.089 13.6875 18.4737 15.3799 18.4737C17.0724 18.4737 18.4571 17.089 18.4571 15.3965C18.4571 14.2579 17.8417 13.2732 16.9185 12.7501L16.9185 1.10282C16.9185 0.502764 16.4262 0.0104088 15.8261 0.0104088C7.57918 -0.297313 0.470804 6.25716 0.0246074 14.4733C-0.529292 24.5512 8.34848 32.6597 18.5033 30.4749C24.4731 29.1978 29.0889 24.6282 30.4275 18.6737C31.5199 13.8117 30.1198 9.19591 27.3965 5.79558C26.8272 5.07243 25.7502 5.02627 25.1039 5.67249Z" transform="translate(3.100006 3.083252)" id="iconmapstrack_24px" fill="#FFFFFF" fill-rule="evenodd" stroke="none" />
  </g>
</svg>