<?xml version="1.0" encoding="utf-8"?>
<svg width="37px" height="37px" viewBox="0 0 37 37" version="1.1" xmlns:xlink="http://www.w3.org/1999/xlink" xmlns="http://www.w3.org/2000/svg">
  <defs>
    <path d="M14.1587 1.12886L23.125 10.0952L23.125 28.4842L14.1319 28.4842L14.1319 20.7759C14.1319 19.3568 12.9816 18.2064 11.5625 18.2064C10.1434 18.2064 8.99306 19.3568 8.99306 20.7759L8.99306 28.4842L0 28.4842L0 9.83693L8.70807 1.12886C10.2132 -0.376288 12.6535 -0.376287 14.1587 1.12886ZM2.56944 10.9012L10.525 2.94573C11.0266 2.44402 11.8401 2.44402 12.3418 2.94573L20.5556 11.1595L20.5556 25.9148L16.7014 25.9148L16.7014 20.7759C16.7014 17.9378 14.4006 15.637 11.5625 15.637C8.72437 15.637 6.42361 17.9378 6.42361 20.7759L6.42361 25.9148L2.56944 25.9148L2.56944 10.9012Z" transform="translate(6.9375 4.2579646)" id="path_1" />
    <clipPath id="mask_1">
      <use xlink:href="#path_1" />
    </clipPath>
  </defs>
  <g id="iconmapstrack_24px">
    <path d="M14.1587 1.12886L23.125 10.0952L23.125 28.4842L14.1319 28.4842L14.1319 20.7759C14.1319 19.3568 12.9816 18.2064 11.5625 18.2064C10.1434 18.2064 8.99306 19.3568 8.99306 20.7759L8.99306 28.4842L0 28.4842L0 9.83693L8.70807 1.12886C10.2132 -0.376288 12.6535 -0.376287 14.1587 1.12886ZM2.56944 10.9012L10.525 2.94573C11.0266 2.44402 11.8401 2.44402 12.3418 2.94573L20.5556 11.1595L20.5556 25.9148L16.7014 25.9148L16.7014 20.7759C16.7014 17.9378 14.4006 15.637 11.5625 15.637C8.72437 15.637 6.42361 17.9378 6.42361 20.7759L6.42361 25.9148L2.56944 25.9148L2.56944 10.9012Z" transform="translate(6.9375 4.2579646)" id="home" fill="#FFFFFF" fill-rule="evenodd" stroke="none" />
  </g>
</svg>